<mxfile host="www.draw.io" modified="2020-04-05T21:26:35.359Z" agent="Mozilla/5.0 (Macintosh; Intel Mac OS X 10_14_6) AppleWebKit/537.36 (KHTML, like Gecko) Chrome/80.0.3987.149 Safari/537.36" etag="DMGWuSiIEH2nQ45X4WKI" version="12.9.2" type="github">
  <diagram id="rxemiTS4Cghn9tVPRcRa" name="Page-1">
    <mxGraphModel dx="815" dy="477" grid="1" gridSize="10" guides="1" tooltips="1" connect="1" arrows="1" fold="1" page="1" pageScale="1" pageWidth="827" pageHeight="1169" math="0" shadow="0">
      <root>
        <mxCell id="0" />
        <mxCell id="1" parent="0" />
        <mxCell id="uATNZxcQeEhFYaSImwkO-14" style="edgeStyle=orthogonalEdgeStyle;orthogonalLoop=1;jettySize=auto;html=1;entryX=0;entryY=0.5;entryDx=0;entryDy=0;curved=1;exitX=0;exitY=0.5;exitDx=0;exitDy=0;" edge="1" parent="1" source="uATNZxcQeEhFYaSImwkO-1" target="uATNZxcQeEhFYaSImwkO-6">
          <mxGeometry relative="1" as="geometry" />
        </mxCell>
        <mxCell id="uATNZxcQeEhFYaSImwkO-1" value="&lt;font style=&quot;font-size: 16px&quot;&gt;file1&lt;/font&gt;" style="rounded=0;whiteSpace=wrap;html=1;" vertex="1" parent="1">
          <mxGeometry x="120" y="120" width="120" height="40" as="geometry" />
        </mxCell>
        <mxCell id="uATNZxcQeEhFYaSImwkO-2" value="&lt;font style=&quot;font-size: 16px&quot;&gt;file2(deleted)&lt;/font&gt;" style="rounded=0;whiteSpace=wrap;html=1;glass=0;shadow=0;comic=0;fillColor=#f5f5f5;strokeColor=#666666;fontColor=#333333;" vertex="1" parent="1">
          <mxGeometry x="240" y="120" width="120" height="40" as="geometry" />
        </mxCell>
        <mxCell id="uATNZxcQeEhFYaSImwkO-3" value="&lt;font style=&quot;font-size: 16px&quot;&gt;file3&lt;/font&gt;" style="rounded=0;whiteSpace=wrap;html=1;" vertex="1" parent="1">
          <mxGeometry x="360" y="120" width="160" height="40" as="geometry" />
        </mxCell>
        <mxCell id="uATNZxcQeEhFYaSImwkO-4" value="&lt;font style=&quot;font-size: 16px&quot;&gt;......&lt;/font&gt;" style="rounded=0;whiteSpace=wrap;html=1;" vertex="1" parent="1">
          <mxGeometry x="520" y="120" width="80" height="40" as="geometry" />
        </mxCell>
        <mxCell id="uATNZxcQeEhFYaSImwkO-6" value="&lt;font style=&quot;font-size: 16px&quot;&gt;file1&lt;/font&gt;" style="rounded=0;whiteSpace=wrap;html=1;" vertex="1" parent="1">
          <mxGeometry x="120" y="200" width="120" height="40" as="geometry" />
        </mxCell>
        <mxCell id="uATNZxcQeEhFYaSImwkO-8" value="&lt;font style=&quot;font-size: 16px&quot;&gt;file3&lt;/font&gt;" style="rounded=0;whiteSpace=wrap;html=1;" vertex="1" parent="1">
          <mxGeometry x="240" y="200" width="160" height="40" as="geometry" />
        </mxCell>
        <mxCell id="uATNZxcQeEhFYaSImwkO-9" value="&lt;font style=&quot;font-size: 16px&quot;&gt;......&lt;/font&gt;" style="rounded=0;whiteSpace=wrap;html=1;" vertex="1" parent="1">
          <mxGeometry x="400" y="200" width="80" height="40" as="geometry" />
        </mxCell>
        <mxCell id="uATNZxcQeEhFYaSImwkO-10" value="" style="shape=curlyBracket;whiteSpace=wrap;html=1;rounded=1;shadow=0;glass=0;comic=0;fillColor=#ffffff;gradientColor=none;rotation=90;" vertex="1" parent="1">
          <mxGeometry x="350" y="100" width="20" height="480" as="geometry" />
        </mxCell>
        <mxCell id="uATNZxcQeEhFYaSImwkO-12" value="&lt;font style=&quot;font-size: 18px&quot;&gt;Extent File&lt;/font&gt;" style="text;html=1;strokeColor=none;fillColor=none;align=center;verticalAlign=middle;whiteSpace=wrap;rounded=0;shadow=0;glass=0;comic=0;" vertex="1" parent="1">
          <mxGeometry x="285" y="60" width="150" height="20" as="geometry" />
        </mxCell>
        <mxCell id="uATNZxcQeEhFYaSImwkO-15" value="&lt;font style=&quot;font-size: 16px&quot;&gt;GC&lt;/font&gt;" style="text;html=1;strokeColor=none;fillColor=none;align=center;verticalAlign=middle;whiteSpace=wrap;rounded=0;shadow=0;glass=0;comic=0;" vertex="1" parent="1">
          <mxGeometry x="50" y="170" width="40" height="20" as="geometry" />
        </mxCell>
        <mxCell id="uATNZxcQeEhFYaSImwkO-16" value="&lt;font style=&quot;font-size: 16px&quot;&gt;file1&lt;/font&gt;" style="rounded=0;whiteSpace=wrap;html=1;" vertex="1" parent="1">
          <mxGeometry x="120" y="360" width="120" height="40" as="geometry" />
        </mxCell>
        <mxCell id="uATNZxcQeEhFYaSImwkO-17" value="&lt;font style=&quot;font-size: 16px&quot;&gt;file2(deleted)&lt;/font&gt;" style="rounded=0;whiteSpace=wrap;html=1;glass=0;shadow=0;comic=0;fillColor=#f5f5f5;strokeColor=#666666;fontColor=#333333;" vertex="1" parent="1">
          <mxGeometry x="240" y="360" width="120" height="40" as="geometry" />
        </mxCell>
        <mxCell id="uATNZxcQeEhFYaSImwkO-18" value="&lt;font style=&quot;font-size: 16px&quot;&gt;file3&lt;/font&gt;" style="rounded=0;whiteSpace=wrap;html=1;" vertex="1" parent="1">
          <mxGeometry x="360" y="360" width="160" height="40" as="geometry" />
        </mxCell>
        <mxCell id="uATNZxcQeEhFYaSImwkO-19" value="&lt;font style=&quot;font-size: 16px&quot;&gt;......&lt;/font&gt;" style="rounded=0;whiteSpace=wrap;html=1;" vertex="1" parent="1">
          <mxGeometry x="520" y="360" width="80" height="40" as="geometry" />
        </mxCell>
        <mxCell id="uATNZxcQeEhFYaSImwkO-20" value="" style="shape=curlyBracket;whiteSpace=wrap;html=1;rounded=1;shadow=0;glass=0;comic=0;fillColor=#ffffff;gradientColor=none;rotation=90;" vertex="1" parent="1">
          <mxGeometry x="360" y="-130" width="20" height="480" as="geometry" />
        </mxCell>
        <mxCell id="uATNZxcQeEhFYaSImwkO-21" value="&lt;font style=&quot;font-size: 18px&quot;&gt;Extent File&lt;/font&gt;" style="text;html=1;strokeColor=none;fillColor=none;align=center;verticalAlign=middle;whiteSpace=wrap;rounded=0;shadow=0;glass=0;comic=0;" vertex="1" parent="1">
          <mxGeometry x="285" y="300" width="150" height="20" as="geometry" />
        </mxCell>
        <mxCell id="uATNZxcQeEhFYaSImwkO-24" style="edgeStyle=orthogonalEdgeStyle;curved=1;orthogonalLoop=1;jettySize=auto;html=1;entryX=0.5;entryY=1;entryDx=0;entryDy=0;exitX=0.55;exitY=0.142;exitDx=0;exitDy=0;exitPerimeter=0;" edge="1" parent="1" source="uATNZxcQeEhFYaSImwkO-23" target="uATNZxcQeEhFYaSImwkO-17">
          <mxGeometry relative="1" as="geometry" />
        </mxCell>
        <mxCell id="uATNZxcQeEhFYaSImwkO-23" value="&lt;font style=&quot;font-size: 16px&quot;&gt;punch hole&lt;/font&gt;" style="ellipse;shape=cloud;whiteSpace=wrap;html=1;shadow=0;glass=0;comic=0;fillColor=#ffffff;gradientColor=none;" vertex="1" parent="1">
          <mxGeometry x="285" y="430" width="160" height="60" as="geometry" />
        </mxCell>
      </root>
    </mxGraphModel>
  </diagram>
</mxfile>
